<svg width="256" height="256" viewBox="0 0 256 256" fill="none" xmlns="http://www.w3.org/2000/svg" role="img" aria-labelledby="title desc">
  <title id="title">Vedanta Life School Logo</title>
  <desc id="desc">A saffron flame above an open book on a dark circular background.</desc>
  <defs>
    <linearGradient id="bg" x1="128" y1="0" x2="128" y2="256" gradientUnits="userSpaceOnUse">
      <stop stop-color="#17120B"/>
      <stop offset="1" stop-color="#0D0B08"/>
    </linearGradient>
    <linearGradient id="saffron" x1="128" y1="42" x2="128" y2="122" gradientUnits="userSpaceOnUse">
      <stop stop-color="#FF8A2A"/>
      <stop offset="1" stop-color="#FF6B1A"/>
    </linearGradient>
  </defs>
  <circle cx="128" cy="128" r="124" fill="url(#bg)" stroke="#FF6B1A" stroke-opacity="0.35" stroke-width="8"/>
  <path d="M128 44C114 62 112 79 117 93C121 103 129 110 128 120C141 108 152 96 150 79C149 67 141 55 128 44Z" fill="url(#saffron)"/>
  <path d="M128 64C121 74 121 84 124 91C126 96 130 100 128 106C137 98 143 90 142 82C141 75 136 69 128 64Z" fill="#FFC37A" fill-opacity="0.95"/>
  <path d="M64 152C88 142 110 143 128 152V194C110 186 88 185 64 194V152Z" fill="#F8F0E2" fill-opacity="0.96"/>
  <path d="M192 152C168 142 146 143 128 152V194C146 186 168 185 192 194V152Z" fill="#F8F0E2" fill-opacity="0.96"/>
  <path d="M128 152V194" stroke="#FF6B1A" stroke-opacity="0.45" stroke-width="2"/>
</svg>
